<?xml version="1.0" encoding="UTF-8" standalone="no"?>
<!-- Created with Inkscape (http://www.inkscape.org/) -->

<svg
   xmlns:dc="http://purl.org/dc/elements/1.1/"
   xmlns:cc="http://creativecommons.org/ns#"
   xmlns:rdf="http://www.w3.org/1999/02/22-rdf-syntax-ns#"
   xmlns:svg="http://www.w3.org/2000/svg"
   xmlns="http://www.w3.org/2000/svg"
   xmlns:sodipodi="http://sodipodi.sourceforge.net/DTD/sodipodi-0.dtd"
   xmlns:inkscape="http://www.inkscape.org/namespaces/inkscape"
   width="441.25912"
   height="214.05284"
   id="svg2"
   sodipodi:version="0.32"
   inkscape:version="0.48.2 r9819"
   version="1.0"
   sodipodi:docname="fragment-ray-casting.svg"
   inkscape:output_extension="org.inkscape.output.svg.inkscape">
  <defs
     id="defs4">
    <marker
       inkscape:stockid="Arrow1Send"
       orient="auto"
       refY="0"
       refX="0"
       id="Arrow1Send"
       style="overflow:visible">
      <path
         id="path5080"
         d="M 0,0 5,-5 -12.5,0 5,5 0,0 z"
         style="fill-rule:evenodd;stroke:#000000;stroke-width:1pt;marker-start:none"
         transform="matrix(-0.2,0,0,-0.2,-1.2,0)"
         inkscape:connector-curvature="0" />
    </marker>
    <marker
       inkscape:stockid="Arrow1Mend"
       orient="auto"
       refY="0"
       refX="0"
       id="Arrow1Mend"
       style="overflow:visible">
      <path
         id="path3301"
         d="M 0,0 5,-5 -12.5,0 5,5 0,0 z"
         style="fill-rule:evenodd;stroke:#000000;stroke-width:1pt;marker-start:none"
         transform="matrix(-0.4,0,0,-0.4,-4,0)"
         inkscape:connector-curvature="0" />
    </marker>
    <inkscape:perspective
       sodipodi:type="inkscape:persp3d"
       inkscape:vp_x="0 : 526.18109 : 1"
       inkscape:vp_y="0 : 1000 : 0"
       inkscape:vp_z="744.09448 : 526.18109 : 1"
       inkscape:persp3d-origin="372.04724 : 350.78739 : 1"
       id="perspective10" />
  </defs>
  <sodipodi:namedview
     id="base"
     pagecolor="#ffffff"
     bordercolor="#666666"
     borderopacity="1.0"
     gridtolerance="10"
     guidetolerance="10"
     objecttolerance="10"
     inkscape:pageopacity="0.0"
     inkscape:pageshadow="2"
     inkscape:zoom="2.0897324"
     inkscape:cx="227.35711"
     inkscape:cy="63.992883"
     inkscape:document-units="px"
     inkscape:current-layer="layer2"
     showgrid="true"
     inkscape:snap-center="true"
     inkscape:object-nodes="true"
     inkscape:object-paths="false"
     inkscape:snap-nodes="true"
     inkscape:snap-global="true"
     inkscape:window-width="1680"
     inkscape:window-height="1000"
     inkscape:window-x="0"
     inkscape:window-y="0"
     inkscape:snap-bbox="false"
     showguides="false"
     inkscape:guide-bbox="true"
     guidecolor="#ffa700"
     guideopacity="0.49803922"
     inkscape:snap-intersection-grid-guide="true"
     inkscape:window-maximized="0"
     fit-margin-top="10"
     fit-margin-left="10"
     fit-margin-bottom="10"
     fit-margin-right="10">
    <inkscape:grid
       type="xygrid"
       id="grid3157"
       visible="true"
       enabled="true"
       units="in"
       spacingx="0.25in"
       spacingy="0.25in"
       empspacing="4"
       snapvisiblegridlinesonly="true" />
    <sodipodi:guide
       orientation="1,0"
       position="346.34868,211.28374"
       id="guide3418" />
    <sodipodi:guide
       orientation="1,0"
       position="316.78569,1.3491026"
       id="guide3422" />
    <sodipodi:guide
       orientation="1,0"
       position="282.0602,126.52646"
       id="guide3434" />
    <sodipodi:guide
       orientation="1,0"
       position="285.21288,59.531963"
       id="guide3436" />
    <sodipodi:guide
       orientation="1,0"
       position="253.29197,94.605553"
       id="guide3438" />
  </sodipodi:namedview>
  <metadata
     id="metadata7">
    <rdf:RDF>
      <cc:Work
         rdf:about="">
        <dc:format>image/svg+xml</dc:format>
        <dc:type
           rdf:resource="http://purl.org/dc/dcmitype/StillImage" />
      </cc:Work>
    </rdf:RDF>
  </metadata>
  <g
     inkscape:label="pixels"
     inkscape:groupmode="layer"
     id="layer1"
     sodipodi:insensitive="true"
     style="display:inline"
     transform="translate(-23.75,-208.4894)">
    <path
       sodipodi:type="arc"
       style="fill:#000000;fill-opacity:1;stroke:none"
       id="path3161"
       sodipodi:cx="270"
       sodipodi:cy="540"
       sodipodi:rx="22.5"
       sodipodi:ry="0"
       transform="matrix(0.4777778,0,0,0.4777778,140.99999,281.99999)" />
  </g>
  <g
     inkscape:groupmode="layer"
     id="layer5"
     inkscape:label="volume"
     style="display:inline"
     sodipodi:insensitive="true"
     transform="translate(-23.75,-208.4894)">
    <path
       style="fill:none;stroke:#0000ff;stroke-width:2;stroke-linecap:butt;stroke-linejoin:miter;stroke-opacity:1"
       d="m 376.57633,220.99083 77.43281,110.58551 -110.58551,77.43281 -77.43282,-110.58552 110.58552,-77.4328 z"
       id="path4998"
       inkscape:connector-curvature="0" />
  </g>
  <g
     inkscape:groupmode="layer"
     id="layer6"
     inkscape:label="rays"
     sodipodi:insensitive="true"
     transform="translate(-23.75,-208.4894)">
    <path
       style="fill:none;stroke:#808080;stroke-width:2;stroke-linecap:butt;stroke-linejoin:miter;stroke-miterlimit:4;stroke-opacity:1;stroke-dasharray:2, 2;stroke-dashoffset:0;marker-end:none"
       d="M 45,315 304.39138,270.30601"
       id="path3426"
       inkscape:connector-curvature="0"
       sodipodi:nodetypes="cc" />
    <path
       style="fill:none;stroke:#808080;stroke-width:2;stroke-linecap:butt;stroke-linejoin:miter;stroke-miterlimit:4;stroke-opacity:1;stroke-dasharray:2, 2;stroke-dashoffset:0;marker-end:none"
       d="m 45,315 231.60161,-0.0837"
       id="path3428"
       inkscape:connector-curvature="0"
       sodipodi:nodetypes="cc" />
    <path
       style="fill:none;stroke:#808080;stroke-width:2;stroke-linecap:butt;stroke-linejoin:miter;stroke-miterlimit:4;stroke-opacity:1;stroke-dasharray:2, 2;stroke-dashoffset:0;marker-end:none"
       d="m 45,315 263.60208,44.9385"
       id="path3430"
       inkscape:connector-curvature="0"
       sodipodi:nodetypes="cc" />
    <path
       style="fill:none;stroke:#808080;stroke-width:2;stroke-linecap:butt;stroke-linejoin:miter;stroke-miterlimit:4;stroke-opacity:1;stroke-dasharray:2, 2;stroke-dashoffset:0;marker-end:none"
       d="M 45.713898,314.91605 340.00708,404.94017"
       id="path3432"
       inkscape:connector-curvature="0"
       sodipodi:nodetypes="cc" />
    <path
       style="fill:none;stroke:#808080;stroke-width:2;stroke-linecap:butt;stroke-linejoin:miter;stroke-miterlimit:4;stroke-opacity:1;stroke-dasharray:2, 2;stroke-dashoffset:0;marker-end:none"
       d="M 45,315 369.95791,225.03897"
       id="path3440"
       inkscape:connector-curvature="0"
       sodipodi:nodetypes="cc" />
    <path
       style="fill:none;stroke:#000000;stroke-width:2;stroke-linecap:butt;stroke-linejoin:miter;stroke-opacity:1;marker-end:url(#Arrow1Mend)"
       d="m 399.06454,253.58958 -84.4865,14.9384"
       id="path4876"
       inkscape:connector-curvature="0"
       sodipodi:nodetypes="cc" />
    <path
       style="fill:none;stroke:#000000;stroke-width:2;stroke-linecap:butt;stroke-linejoin:miter;stroke-opacity:1;marker-end:url(#Arrow1Mend)"
       d="m 442.22389,315 -157.09567,0.12785"
       id="path4878"
       inkscape:connector-curvature="0"
       sodipodi:nodetypes="cc" />
    <path
       style="fill:none;stroke:#000000;stroke-width:2;stroke-linecap:butt;stroke-linejoin:miter;stroke-opacity:1;marker-mid:none;marker-end:url(#Arrow1Mend)"
       d="M 393.3029,374.29592 317.59554,361.67486"
       id="path6060"
       inkscape:connector-curvature="0"
       sodipodi:nodetypes="cc" />
  </g>
  <g
     inkscape:groupmode="layer"
     id="layer2"
     inkscape:label="fragments"
     style="display:inline"
     sodipodi:insensitive="true"
     transform="translate(-23.75,-208.4894)">
    <path
       sodipodi:type="arc"
       style="fill:#00ff00;fill-opacity:1;stroke:none"
       id="path3394"
       sodipodi:cx="265.99081"
       sodipodi:cy="298.42365"
       sodipodi:rx="10.7186"
       sodipodi:ry="10.7186"
       d="m 276.70941,298.42365 c 0,5.91971 -4.79888,10.7186 -10.7186,10.7186 -5.91972,0 -10.7186,-4.79889 -10.7186,-10.7186 0,-5.91972 4.79888,-10.71861 10.7186,-10.71861 5.91972,0 10.7186,4.79889 10.7186,10.71861 z"
       transform="matrix(0.5,0,0,0.5,144.29794,165.70424)" />
    <path
       transform="matrix(0.5,0,0,0.5,237.10327,75.892627)"
       d="m 276.70941,298.42365 c 0,5.91971 -4.79888,10.7186 -10.7186,10.7186 -5.91972,0 -10.7186,-4.79889 -10.7186,-10.7186 0,-5.91972 4.79888,-10.71861 10.7186,-10.71861 5.91972,0 10.7186,4.79889 10.7186,10.71861 z"
       sodipodi:ry="10.7186"
       sodipodi:rx="10.7186"
       sodipodi:cy="298.42365"
       sodipodi:cx="265.99081"
       id="path3400"
       style="fill:#00ff00;fill-opacity:1;stroke:none"
       sodipodi:type="arc" />
    <path
       sodipodi:type="arc"
       style="fill:#00ff00;fill-opacity:1;stroke:none"
       id="path3402"
       sodipodi:cx="265.99081"
       sodipodi:cy="298.42365"
       sodipodi:rx="10.7186"
       sodipodi:ry="10.7186"
       d="m 276.70941,298.42365 c 0,5.91971 -4.79888,10.7186 -10.7186,10.7186 -5.91972,0 -10.7186,-4.79889 -10.7186,-10.7186 0,-5.91972 4.79888,-10.71861 10.7186,-10.71861 5.91972,0 10.7186,4.79889 10.7186,10.71861 z"
       transform="matrix(0.5,0,0,0.5,173.1125,120.79843)" />
    <path
       transform="matrix(0.5,0,0,0.5,176.10622,210.78818)"
       d="m 276.70941,298.42365 c 0,5.91971 -4.79888,10.7186 -10.7186,10.7186 -5.91972,0 -10.7186,-4.79889 -10.7186,-10.7186 0,-5.91972 4.79888,-10.71861 10.7186,-10.71861 5.91972,0 10.7186,4.79889 10.7186,10.71861 z"
       sodipodi:ry="10.7186"
       sodipodi:rx="10.7186"
       sodipodi:cy="298.42365"
       sodipodi:cx="265.99081"
       id="path3404"
       style="fill:#00ff00;fill-opacity:1;stroke:none"
       sodipodi:type="arc" />
    <path
       sodipodi:type="arc"
       style="fill:#00ff00;fill-opacity:1;stroke:none"
       id="path3406"
       sodipodi:cx="265.99081"
       sodipodi:cy="298.42365"
       sodipodi:rx="10.7186"
       sodipodi:ry="10.7186"
       d="m 276.70941,298.42365 c 0,5.91971 -4.79888,10.7186 -10.7186,10.7186 -5.91972,0 -10.7186,-4.79889 -10.7186,-10.7186 0,-5.91972 4.79888,-10.71861 10.7186,-10.71861 5.91972,0 10.7186,4.79889 10.7186,10.71861 z"
       transform="matrix(0.5,0,0,0.5,207.54028,255.89006)" />
    <path
       transform="matrix(0.5,0,0,0.5,266.06913,104.37776)"
       d="m 276.70941,298.42365 c 0,5.91971 -4.79888,10.7186 -10.7186,10.7186 -5.91972,0 -10.7186,-4.79889 -10.7186,-10.7186 0,-5.91972 4.79888,-10.71861 10.7186,-10.71861 5.91972,0 10.7186,4.79889 10.7186,10.71861 z"
       sodipodi:ry="10.7186"
       sodipodi:rx="10.7186"
       sodipodi:cy="298.42365"
       sodipodi:cx="265.99081"
       id="path3182"
       style="fill:#ff0000;fill-opacity:1;stroke:none"
       sodipodi:type="arc" />
    <path
       sodipodi:type="arc"
       style="fill:#ff0000;fill-opacity:1;stroke:none"
       id="path3184"
       sodipodi:cx="265.99081"
       sodipodi:cy="298.42365"
       sodipodi:rx="10.7186"
       sodipodi:ry="10.7186"
       d="m 276.70941,298.42365 c 0,5.91971 -4.79888,10.7186 -10.7186,10.7186 -5.91972,0 -10.7186,-4.79889 -10.7186,-10.7186 0,-5.91972 4.79888,-10.71861 10.7186,-10.71861 5.91972,0 10.7186,4.79889 10.7186,10.71861 z"
       transform="matrix(0.5,0,0,0.5,309.22848,165.78818)" />
    <path
       transform="matrix(0.5,0,0,0.5,260.30749,225.0841)"
       d="m 276.70941,298.42365 c 0,5.91971 -4.79888,10.7186 -10.7186,10.7186 -5.91972,0 -10.7186,-4.79889 -10.7186,-10.7186 0,-5.91972 4.79888,-10.71861 10.7186,-10.71861 5.91972,0 10.7186,4.79889 10.7186,10.71861 z"
       sodipodi:ry="10.7186"
       sodipodi:rx="10.7186"
       sodipodi:cy="298.42365"
       sodipodi:cx="265.99081"
       id="path3186"
       style="fill:#ff0000;fill-opacity:1;stroke:none"
       sodipodi:type="arc" />
    <path
       sodipodi:type="arc"
       style="fill:#ff0000;fill-opacity:1;stroke:none"
       id="path3188"
       sodipodi:cx="265.99081"
       sodipodi:cy="298.42365"
       sodipodi:rx="10.7186"
       sodipodi:ry="10.7186"
       d="m 276.70941,298.42365 c 0,5.91971 -4.79888,10.7186 -10.7186,10.7186 -5.91972,0 -10.7186,-4.79889 -10.7186,-10.7186 0,-5.91972 4.79888,-10.71861 10.7186,-10.71861 5.91972,0 10.7186,4.79889 10.7186,10.71861 z"
       transform="matrix(0.5,0,0,0.5,244.06902,74.636873)" />
    <path
       transform="matrix(0.5,0,0,0.5,213.92072,257.97111)"
       d="m 276.70941,298.42365 c 0,5.91971 -4.79888,10.7186 -10.7186,10.7186 -5.91972,0 -10.7186,-4.79889 -10.7186,-10.7186 0,-5.91972 4.79888,-10.71861 10.7186,-10.71861 5.91972,0 10.7186,4.79889 10.7186,10.71861 z"
       sodipodi:ry="10.7186"
       sodipodi:rx="10.7186"
       sodipodi:cy="298.42365"
       sodipodi:cx="265.99081"
       id="path3190"
       style="fill:#ff0000;fill-opacity:1;stroke:none"
       sodipodi:type="arc" />
  </g>
  <g
     inkscape:groupmode="layer"
     id="layer7"
     inkscape:label="eyepoint"
     sodipodi:insensitive="true"
     transform="translate(-23.75,-208.4894)">
    <path
       sodipodi:type="arc"
       style="fill:#000000;fill-opacity:1;stroke:none"
       id="path3256"
       sodipodi:cx="281.25"
       sodipodi:cy="551.25"
       sodipodi:rx="11.25"
       sodipodi:ry="11.25"
       d="m 292.5,551.25 c 0,6.2132 -5.0368,11.25 -11.25,11.25 -6.2132,0 -11.25,-5.0368 -11.25,-11.25 0,-6.2132 5.0368,-11.25 11.25,-11.25 6.2132,0 11.25,5.0368 11.25,11.25 z"
       transform="matrix(0,1,-1,0,596.25,33.75)" />
  </g>
</svg>
