<?xml version="1.0" encoding="UTF-8" standalone="no"?>
<!-- Created with Inkscape (http://www.inkscape.org/) -->

<svg
   xmlns:dc="http://purl.org/dc/elements/1.1/"
   xmlns:cc="http://creativecommons.org/ns#"
   xmlns:rdf="http://www.w3.org/1999/02/22-rdf-syntax-ns#"
   xmlns:svg="http://www.w3.org/2000/svg"
   xmlns="http://www.w3.org/2000/svg"
   xmlns:sodipodi="http://sodipodi.sourceforge.net/DTD/sodipodi-0.dtd"
   xmlns:inkscape="http://www.inkscape.org/namespaces/inkscape"
   width="399.08987"
   height="268.14285"
   id="svg2"
   version="1.1"
   inkscape:version="0.48.2 r9819"
   sodipodi:docname="venn-xor.svg">
  <defs
     id="defs4" />
  <sodipodi:namedview
     id="base"
     pagecolor="#ffffff"
     bordercolor="#666666"
     borderopacity="1.0"
     inkscape:pageopacity="0.0"
     inkscape:pageshadow="2"
     inkscape:zoom="1.3617486"
     inkscape:cx="219.76564"
     inkscape:cy="119.78571"
     inkscape:document-units="px"
     inkscape:current-layer="layer2"
     showgrid="false"
     fit-margin-top="10"
     fit-margin-left="10"
     fit-margin-right="10"
     fit-margin-bottom="10"
     inkscape:window-width="1421"
     inkscape:window-height="968"
     inkscape:window-x="184"
     inkscape:window-y="12"
     inkscape:window-maximized="0" />
  <metadata
     id="metadata7">
    <rdf:RDF>
      <cc:Work
         rdf:about="">
        <dc:format>image/svg+xml</dc:format>
        <dc:type
           rdf:resource="http://purl.org/dc/dcmitype/StillImage" />
        <dc:title></dc:title>
      </cc:Work>
    </rdf:RDF>
  </metadata>
  <g
     inkscape:groupmode="layer"
     id="layer2"
     inkscape:label="Intersection"
     transform="translate(-230.92857,-76.45163)">
    <path
       style="fill:#0000ff;stroke:#000000;display:inline"
       d="M 134.0625 10.5 C 65.815886 10.5 10.5 65.815886 10.5 134.0625 C 10.5 202.30911 65.815886 257.65625 134.0625 257.65625 C 158.11012 257.65625 180.57874 250.7894 199.5625 238.90625 C 164.65818 217.06787 141.4375 178.27103 141.4375 134.0625 C 141.4375 89.856672 164.66175 51.089116 199.5625 29.25 C 180.57743 17.364481 158.11271 10.5 134.0625 10.5 z M 199.5625 29.25 C 234.45082 51.091684 257.65625 89.866099 257.65625 134.0625 C 257.65625 178.2615 234.45425 217.06527 199.5625 238.90625 C 218.54148 250.78072 240.99317 257.65625 265.03125 257.65625 C 333.27786 257.65625 388.59375 202.30911 388.59375 134.0625 C 388.59375 65.815886 333.27786 10.5 265.03125 10.5 C 240.99046 10.5 218.54284 17.37307 199.5625 29.25 z "
       transform="translate(230.92857,76.45163)"
       id="path2985-8" />
  </g>
</svg>
