<?xml version="1.0" encoding="UTF-8" standalone="no"?>
<!-- Created with Inkscape (http://www.inkscape.org/) -->

<svg
   xmlns:dc="http://purl.org/dc/elements/1.1/"
   xmlns:cc="http://creativecommons.org/ns#"
   xmlns:rdf="http://www.w3.org/1999/02/22-rdf-syntax-ns#"
   xmlns:svg="http://www.w3.org/2000/svg"
   xmlns="http://www.w3.org/2000/svg"
   xmlns:sodipodi="http://sodipodi.sourceforge.net/DTD/sodipodi-0.dtd"
   xmlns:inkscape="http://www.inkscape.org/namespaces/inkscape"
   width="399.08987"
   height="268.14285"
   id="svg2"
   version="1.1"
   inkscape:version="0.48.2 r9819"
   sodipodi:docname="New document 1">
  <defs
     id="defs4" />
  <sodipodi:namedview
     id="base"
     pagecolor="#ffffff"
     bordercolor="#666666"
     borderopacity="1.0"
     inkscape:pageopacity="0.0"
     inkscape:pageshadow="2"
     inkscape:zoom="1.3617486"
     inkscape:cx="219.76564"
     inkscape:cy="119.78571"
     inkscape:document-units="px"
     inkscape:current-layer="layer2"
     showgrid="false"
     fit-margin-top="10"
     fit-margin-left="10"
     fit-margin-right="10"
     fit-margin-bottom="10"
     inkscape:window-width="1421"
     inkscape:window-height="968"
     inkscape:window-x="184"
     inkscape:window-y="12"
     inkscape:window-maximized="0" />
  <metadata
     id="metadata7">
    <rdf:RDF>
      <cc:Work
         rdf:about="">
        <dc:format>image/svg+xml</dc:format>
        <dc:type
           rdf:resource="http://purl.org/dc/dcmitype/StillImage" />
        <dc:title></dc:title>
      </cc:Work>
    </rdf:RDF>
  </metadata>
  <g
     inkscape:groupmode="layer"
     id="layer2"
     inkscape:label="Intersection"
     transform="translate(-230.92857,-76.45163)">
    <path
       style="fill:#0000ff;stroke:#000000;display:inline"
       d="m 199.5625,29.25 c -34.90075,21.839116 -58.125,60.606672 -58.125,104.8125 0,44.20853 23.22068,83.00537 58.125,104.84375 34.89175,-21.84098 58.09375,-60.64475 58.09375,-104.84375 0,-44.196401 -23.20543,-82.970816 -58.09375,-104.8125 z"
       transform="translate(230.92857,76.45163)"
       id="path2985-9"
       inkscape:connector-curvature="0" />
  </g>
  <g
     inkscape:label="Outlines"
     inkscape:groupmode="layer"
     id="layer1"
     transform="translate(-230.92857,-384.71933)"
     style="display:inline"
     sodipodi:insensitive="true">
    <path
       sodipodi:type="arc"
       style="fill:none;stroke:#000000"
       id="path2985"
       sodipodi:cx="365"
       sodipodi:cy="210.52306"
       sodipodi:rx="123.57143"
       sodipodi:ry="123.57143"
       d="m 488.57143,210.52306 c 0,68.24661 -55.32482,123.57142 -123.57143,123.57142 -68.24661,0 -123.57143,-55.32481 -123.57143,-123.57142 0,-68.24662 55.32482,-123.57143 123.57143,-123.57143 68.24661,0 123.57143,55.32481 123.57143,123.57143 z"
       transform="translate(0,308.2677)" />
    <path
       transform="translate(130.94703,308.2677)"
       d="m 488.57143,210.52306 c 0,68.24661 -55.32482,123.57142 -123.57143,123.57142 -68.24661,0 -123.57143,-55.32481 -123.57143,-123.57142 0,-68.24662 55.32482,-123.57143 123.57143,-123.57143 68.24661,0 123.57143,55.32481 123.57143,123.57143 z"
       sodipodi:ry="123.57143"
       sodipodi:rx="123.57143"
       sodipodi:cy="210.52306"
       sodipodi:cx="365"
       id="path3005"
       style="fill:none;stroke:#000000"
       sodipodi:type="arc" />
  </g>
</svg>
